<svg xmlns="http://www.w3.org/2000/svg" viewBox="0 0 1096 164" width="1096" height="164" preserveAspectRatio="xMidYMid meet" role="img" aria-label="Environmentally stratified spatiotemporal nested cross-validation for marine systems"><title>Environmentally stratified spatiotemporal nested cross-validation for marine systems</title><defs><linearGradient id="sea" x1="0" y1="0" x2="1" y2="1"><stop offset="0" stop-color="#0C6F92"><animate attributeName="stop-color" values="#0C6F92;#0D3A6B;#10897C;#1C73A8;#0C6F92" dur="13s" repeatCount="indefinite"/></stop><stop offset="0.5" stop-color="#10897C"><animate attributeName="stop-color" values="#10897C;#0C6F92;#1C73A8;#0D3A6B;#10897C" dur="13s" repeatCount="indefinite"/></stop><stop offset="1" stop-color="#0D3A6B"><animate attributeName="stop-color" values="#0D3A6B;#10897C;#0C6F92;#1C73A8;#0D3A6B" dur="13s" repeatCount="indefinite"/></stop></linearGradient><clipPath id="r"><rect width="1096" height="164" rx="20"/></clipPath></defs><g clip-path="url(#r)"><rect width="1096" height="164" fill="url(#sea)"/><path d="M-620.0,24.6 L-612.0,25.7 L-604.0,26.9 L-596.0,28.1 L-588.0,29.4 L-580.0,30.7 L-572.0,32.0 L-564.0,33.3 L-556.0,34.7 L-548.0,36.0 L-540.0,37.3 L-532.0,38.6 L-524.0,39.9 L-516.0,41.1 L-508.0,42.3 L-500.0,43.4 L-492.0,44.4 L-484.0,45.3 L-476.0,46.1 L-468.0,46.9 L-460.0,47.5 L-452.0,48.0 L-444.0,48.5 L-436.0,48.8 L-428.0,48.9 L-420.0,49.0 L-412.0,48.9 L-404.0,48.8 L-396.0,48.5 L-388.0,48.0 L-380.0,47.5 L-372.0,46.9 L-364.0,46.1 L-356.0,45.3 L-348.0,44.4 L-340.0,43.4 L-332.0,42.3 L-324.0,41.1 L-316.0,39.9 L-308.0,38.6 L-300.0,37.3 L-292.0,36.0 L-284.0,34.7 L-276.0,33.3 L-268.0,32.0 L-260.0,30.7 L-252.0,29.4 L-244.0,28.1 L-236.0,26.9 L-228.0,25.7 L-220.0,24.6 L-212.0,23.6 L-204.0,22.7 L-196.0,21.9 L-188.0,21.1 L-180.0,20.5 L-172.0,20.0 L-164.0,19.5 L-156.0,19.2 L-148.0,19.1 L-140.0,19.0 L-132.0,19.1 L-124.0,19.2 L-116.0,19.5 L-108.0,20.0 L-100.0,20.5 L-92.0,21.1 L-84.0,21.9 L-76.0,22.7 L-68.0,23.6 L-60.0,24.6 L-52.0,25.7 L-44.0,26.9 L-36.0,28.1 L-28.0,29.4 L-20.0,30.7 L-12.0,32.0 L-4.0,33.3 L4.0,34.7 L12.0,36.0 L20.0,37.3 L28.0,38.6 L36.0,39.9 L44.0,41.1 L52.0,42.3 L60.0,43.4 L68.0,44.4 L76.0,45.3 L84.0,46.1 L92.0,46.9 L100.0,47.5 L108.0,48.0 L116.0,48.5 L124.0,48.8 L132.0,48.9 L140.0,49.0 L148.0,48.9 L156.0,48.8 L164.0,48.5 L172.0,48.0 L180.0,47.5 L188.0,46.9 L196.0,46.1 L204.0,45.3 L212.0,44.4 L220.0,43.4 L228.0,42.3 L236.0,41.1 L244.0,39.9 L252.0,38.6 L260.0,37.3 L268.0,36.0 L276.0,34.7 L284.0,33.3 L292.0,32.0 L300.0,30.7 L308.0,29.4 L316.0,28.1 L324.0,26.9 L332.0,25.7 L340.0,24.6 L348.0,23.6 L356.0,22.7 L364.0,21.9 L372.0,21.1 L380.0,20.5 L388.0,20.0 L396.0,19.5 L404.0,19.2 L412.0,19.1 L420.0,19.0 L428.0,19.1 L436.0,19.2 L444.0,19.5 L452.0,20.0 L460.0,20.5 L468.0,21.1 L476.0,21.9 L484.0,22.7 L492.0,23.6 L500.0,24.6 L508.0,25.7 L516.0,26.9 L524.0,28.1 L532.0,29.4 L540.0,30.7 L548.0,32.0 L556.0,33.3 L564.0,34.7 L572.0,36.0 L580.0,37.3 L588.0,38.6 L596.0,39.9 L604.0,41.1 L612.0,42.3 L620.0,43.4 L628.0,44.4 L636.0,45.3 L644.0,46.1 L652.0,46.9 L660.0,47.5 L668.0,48.0 L676.0,48.5 L684.0,48.8 L692.0,48.9 L700.0,49.0 L708.0,48.9 L716.0,48.8 L724.0,48.5 L732.0,48.0 L740.0,47.5 L748.0,46.9 L756.0,46.1 L764.0,45.3 L772.0,44.4 L780.0,43.4 L788.0,42.3 L796.0,41.1 L804.0,39.9 L812.0,38.6 L820.0,37.3 L828.0,36.0 L836.0,34.7 L844.0,33.3 L852.0,32.0 L860.0,30.7 L868.0,29.4 L876.0,28.1 L884.0,26.9 L892.0,25.7 L900.0,24.6 L908.0,23.6 L916.0,22.7 L924.0,21.9 L932.0,21.1 L940.0,20.5 L948.0,20.0 L956.0,19.5 L964.0,19.2 L972.0,19.1 L980.0,19.0 L988.0,19.1 L996.0,19.2 L1004.0,19.5 L1012.0,20.0 L1020.0,20.5 L1028.0,21.1 L1036.0,21.9 L1044.0,22.7 L1052.0,23.6 L1060.0,24.6 L1068.0,25.7 L1076.0,26.9 L1084.0,28.1 L1092.0,29.4 L1100.0,30.7 L1108.0,32.0 L1116.0,33.3 L1124.0,34.7 L1132.0,36.0 L1140.0,37.3 L1148.0,38.6 L1156.0,39.9 L1164.0,41.1 L1172.0,42.3 L1180.0,43.4 L1188.0,44.4 L1196.0,45.3 L1204.0,46.1 L1212.0,46.9 L1220.0,47.5 L1228.0,48.0 L1236.0,48.5 L1244.0,48.8 L1252.0,48.9 L1260.0,49.0 L1268.0,48.9 L1276.0,48.8 L1284.0,48.5 L1292.0,48.0 L1300.0,47.5 L1308.0,46.9 L1316.0,46.1 L1324.0,45.3 L1332.0,44.4 L1340.0,43.4 L1348.0,42.3 L1356.0,41.1 L1364.0,39.9 L1372.0,38.6 L1380.0,37.3 L1388.0,36.0 L1396.0,34.7 L1404.0,33.3 L1412.0,32.0 L1420.0,30.7 L1428.0,29.4 L1436.0,28.1 L1444.0,26.9 L1452.0,25.7 L1460.0,24.6 L1468.0,23.6 L1476.0,22.7 L1484.0,21.9 L1492.0,21.1 L1500.0,20.5 L1508.0,20.0 L1516.0,19.5 L1524.0,19.2 L1532.0,19.1 L1540.0,19.0 L1548.0,19.1 L1556.0,19.2 L1564.0,19.5 L1572.0,20.0 L1580.0,20.5 L1588.0,21.1 L1596.0,21.9 L1604.0,22.7 L1612.0,23.6 L1620.0,24.6 L1628.0,25.7 L1636.0,26.9 L1644.0,28.1 L1652.0,29.4 L1660.0,30.7 L1668.0,32.0 L1676.0,33.3 L1684.0,34.7 L1692.0,36.0 L1700.0,37.3 L1708.0,38.6 L1716.0,39.9 L1716.0,87.9 L1708.0,86.6 L1700.0,85.3 L1692.0,84.0 L1684.0,82.7 L1676.0,81.3 L1668.0,80.0 L1660.0,78.7 L1652.0,77.4 L1644.0,76.1 L1636.0,74.9 L1628.0,73.7 L1620.0,72.6 L1612.0,71.6 L1604.0,70.7 L1596.0,69.9 L1588.0,69.1 L1580.0,68.5 L1572.0,68.0 L1564.0,67.5 L1556.0,67.2 L1548.0,67.1 L1540.0,67.0 L1532.0,67.1 L1524.0,67.2 L1516.0,67.5 L1508.0,68.0 L1500.0,68.5 L1492.0,69.1 L1484.0,69.9 L1476.0,70.7 L1468.0,71.6 L1460.0,72.6 L1452.0,73.7 L1444.0,74.9 L1436.0,76.1 L1428.0,77.4 L1420.0,78.7 L1412.0,80.0 L1404.0,81.3 L1396.0,82.7 L1388.0,84.0 L1380.0,85.3 L1372.0,86.6 L1364.0,87.9 L1356.0,89.1 L1348.0,90.3 L1340.0,91.4 L1332.0,92.4 L1324.0,93.3 L1316.0,94.1 L1308.0,94.9 L1300.0,95.5 L1292.0,96.0 L1284.0,96.5 L1276.0,96.8 L1268.0,96.9 L1260.0,97.0 L1252.0,96.9 L1244.0,96.8 L1236.0,96.5 L1228.0,96.0 L1220.0,95.5 L1212.0,94.9 L1204.0,94.1 L1196.0,93.3 L1188.0,92.4 L1180.0,91.4 L1172.0,90.3 L1164.0,89.1 L1156.0,87.9 L1148.0,86.6 L1140.0,85.3 L1132.0,84.0 L1124.0,82.7 L1116.0,81.3 L1108.0,80.0 L1100.0,78.7 L1092.0,77.4 L1084.0,76.1 L1076.0,74.9 L1068.0,73.7 L1060.0,72.6 L1052.0,71.6 L1044.0,70.7 L1036.0,69.9 L1028.0,69.1 L1020.0,68.5 L1012.0,68.0 L1004.0,67.5 L996.0,67.2 L988.0,67.1 L980.0,67.0 L972.0,67.1 L964.0,67.2 L956.0,67.5 L948.0,68.0 L940.0,68.5 L932.0,69.1 L924.0,69.9 L916.0,70.7 L908.0,71.6 L900.0,72.6 L892.0,73.7 L884.0,74.9 L876.0,76.1 L868.0,77.4 L860.0,78.7 L852.0,80.0 L844.0,81.3 L836.0,82.7 L828.0,84.0 L820.0,85.3 L812.0,86.6 L804.0,87.9 L796.0,89.1 L788.0,90.3 L780.0,91.4 L772.0,92.4 L764.0,93.3 L756.0,94.1 L748.0,94.9 L740.0,95.5 L732.0,96.0 L724.0,96.5 L716.0,96.8 L708.0,96.9 L700.0,97.0 L692.0,96.9 L684.0,96.8 L676.0,96.5 L668.0,96.0 L660.0,95.5 L652.0,94.9 L644.0,94.1 L636.0,93.3 L628.0,92.4 L620.0,91.4 L612.0,90.3 L604.0,89.1 L596.0,87.9 L588.0,86.6 L580.0,85.3 L572.0,84.0 L564.0,82.7 L556.0,81.3 L548.0,80.0 L540.0,78.7 L532.0,77.4 L524.0,76.1 L516.0,74.9 L508.0,73.7 L500.0,72.6 L492.0,71.6 L484.0,70.7 L476.0,69.9 L468.0,69.1 L460.0,68.5 L452.0,68.0 L444.0,67.5 L436.0,67.2 L428.0,67.1 L420.0,67.0 L412.0,67.1 L404.0,67.2 L396.0,67.5 L388.0,68.0 L380.0,68.5 L372.0,69.1 L364.0,69.9 L356.0,70.7 L348.0,71.6 L340.0,72.6 L332.0,73.7 L324.0,74.9 L316.0,76.1 L308.0,77.4 L300.0,78.7 L292.0,80.0 L284.0,81.3 L276.0,82.7 L268.0,84.0 L260.0,85.3 L252.0,86.6 L244.0,87.9 L236.0,89.1 L228.0,90.3 L220.0,91.4 L212.0,92.4 L204.0,93.3 L196.0,94.1 L188.0,94.9 L180.0,95.5 L172.0,96.0 L164.0,96.5 L156.0,96.8 L148.0,96.9 L140.0,97.0 L132.0,96.9 L124.0,96.8 L116.0,96.5 L108.0,96.0 L100.0,95.5 L92.0,94.9 L84.0,94.1 L76.0,93.3 L68.0,92.4 L60.0,91.4 L52.0,90.3 L44.0,89.1 L36.0,87.9 L28.0,86.6 L20.0,85.3 L12.0,84.0 L4.0,82.7 L-4.0,81.3 L-12.0,80.0 L-20.0,78.7 L-28.0,77.4 L-36.0,76.1 L-44.0,74.9 L-52.0,73.7 L-60.0,72.6 L-68.0,71.6 L-76.0,70.7 L-84.0,69.9 L-92.0,69.1 L-100.0,68.5 L-108.0,68.0 L-116.0,67.5 L-124.0,67.2 L-132.0,67.1 L-140.0,67.0 L-148.0,67.1 L-156.0,67.2 L-164.0,67.5 L-172.0,68.0 L-180.0,68.5 L-188.0,69.1 L-196.0,69.9 L-204.0,70.7 L-212.0,71.6 L-220.0,72.6 L-228.0,73.7 L-236.0,74.9 L-244.0,76.1 L-252.0,77.4 L-260.0,78.7 L-268.0,80.0 L-276.0,81.3 L-284.0,82.7 L-292.0,84.0 L-300.0,85.3 L-308.0,86.6 L-316.0,87.9 L-324.0,89.1 L-332.0,90.3 L-340.0,91.4 L-348.0,92.4 L-356.0,93.3 L-364.0,94.1 L-372.0,94.9 L-380.0,95.5 L-388.0,96.0 L-396.0,96.5 L-404.0,96.8 L-412.0,96.9 L-420.0,97.0 L-428.0,96.9 L-436.0,96.8 L-444.0,96.5 L-452.0,96.0 L-460.0,95.5 L-468.0,94.9 L-476.0,94.1 L-484.0,93.3 L-492.0,92.4 L-500.0,91.4 L-508.0,90.3 L-516.0,89.1 L-524.0,87.9 L-532.0,86.6 L-540.0,85.3 L-548.0,84.0 L-556.0,82.7 L-564.0,81.3 L-572.0,80.0 L-580.0,78.7 L-588.0,77.4 L-596.0,76.1 L-604.0,74.9 L-612.0,73.7 L-620.0,72.6 Z" fill="#3BB9D6" fill-opacity="0.16"><animateTransform attributeName="transform" type="translate" values="0 0;-560 0" dur="17s" repeatCount="indefinite"/></path><path d="M-500.0,77.3 L-492.0,79.7 L-484.0,82.0 L-476.0,84.2 L-468.0,86.2 L-460.0,88.0 L-452.0,89.6 L-444.0,91.0 L-436.0,92.1 L-428.0,93.0 L-420.0,93.6 L-412.0,93.9 L-404.0,94.0 L-396.0,93.7 L-388.0,93.2 L-380.0,92.4 L-372.0,91.3 L-364.0,90.0 L-356.0,88.4 L-348.0,86.6 L-340.0,84.7 L-332.0,82.5 L-324.0,80.3 L-316.0,77.9 L-308.0,75.4 L-300.0,72.9 L-292.0,70.4 L-284.0,67.9 L-276.0,65.5 L-268.0,63.1 L-260.0,60.9 L-252.0,58.8 L-244.0,56.9 L-236.0,55.2 L-228.0,53.7 L-220.0,52.4 L-212.0,51.4 L-204.0,50.6 L-196.0,50.2 L-188.0,50.0 L-180.0,50.1 L-172.0,50.5 L-164.0,51.2 L-156.0,52.1 L-148.0,53.3 L-140.0,54.8 L-132.0,56.5 L-124.0,58.3 L-116.0,60.4 L-108.0,62.6 L-100.0,64.9 L-92.0,67.3 L-84.0,69.8 L-76.0,72.3 L-68.0,74.8 L-60.0,77.3 L-52.0,79.7 L-44.0,82.0 L-36.0,84.2 L-28.0,86.2 L-20.0,88.0 L-12.0,89.6 L-4.0,91.0 L4.0,92.1 L12.0,93.0 L20.0,93.6 L28.0,93.9 L36.0,94.0 L44.0,93.7 L52.0,93.2 L60.0,92.4 L68.0,91.3 L76.0,90.0 L84.0,88.4 L92.0,86.6 L100.0,84.7 L108.0,82.5 L116.0,80.3 L124.0,77.9 L132.0,75.4 L140.0,72.9 L148.0,70.4 L156.0,67.9 L164.0,65.5 L172.0,63.1 L180.0,60.9 L188.0,58.8 L196.0,56.9 L204.0,55.2 L212.0,53.7 L220.0,52.4 L228.0,51.4 L236.0,50.6 L244.0,50.2 L252.0,50.0 L260.0,50.1 L268.0,50.5 L276.0,51.2 L284.0,52.1 L292.0,53.3 L300.0,54.8 L308.0,56.5 L316.0,58.3 L324.0,60.4 L332.0,62.6 L340.0,64.9 L348.0,67.3 L356.0,69.8 L364.0,72.3 L372.0,74.8 L380.0,77.3 L388.0,79.7 L396.0,82.0 L404.0,84.2 L412.0,86.2 L420.0,88.0 L428.0,89.6 L436.0,91.0 L444.0,92.1 L452.0,93.0 L460.0,93.6 L468.0,93.9 L476.0,94.0 L484.0,93.7 L492.0,93.2 L500.0,92.4 L508.0,91.3 L516.0,90.0 L524.0,88.4 L532.0,86.6 L540.0,84.7 L548.0,82.5 L556.0,80.3 L564.0,77.9 L572.0,75.4 L580.0,72.9 L588.0,70.4 L596.0,67.9 L604.0,65.5 L612.0,63.1 L620.0,60.9 L628.0,58.8 L636.0,56.9 L644.0,55.2 L652.0,53.7 L660.0,52.4 L668.0,51.4 L676.0,50.6 L684.0,50.2 L692.0,50.0 L700.0,50.1 L708.0,50.5 L716.0,51.2 L724.0,52.1 L732.0,53.3 L740.0,54.8 L748.0,56.5 L756.0,58.3 L764.0,60.4 L772.0,62.6 L780.0,64.9 L788.0,67.3 L796.0,69.8 L804.0,72.3 L812.0,74.8 L820.0,77.3 L828.0,79.7 L836.0,82.0 L844.0,84.2 L852.0,86.2 L860.0,88.0 L868.0,89.6 L876.0,91.0 L884.0,92.1 L892.0,93.0 L900.0,93.6 L908.0,93.9 L916.0,94.0 L924.0,93.7 L932.0,93.2 L940.0,92.4 L948.0,91.3 L956.0,90.0 L964.0,88.4 L972.0,86.6 L980.0,84.7 L988.0,82.5 L996.0,80.3 L1004.0,77.9 L1012.0,75.4 L1020.0,72.9 L1028.0,70.4 L1036.0,67.9 L1044.0,65.5 L1052.0,63.1 L1060.0,60.9 L1068.0,58.8 L1076.0,56.9 L1084.0,55.2 L1092.0,53.7 L1100.0,52.4 L1108.0,51.4 L1116.0,50.6 L1124.0,50.2 L1132.0,50.0 L1140.0,50.1 L1148.0,50.5 L1156.0,51.2 L1164.0,52.1 L1172.0,53.3 L1180.0,54.8 L1188.0,56.5 L1196.0,58.3 L1204.0,60.4 L1212.0,62.6 L1220.0,64.9 L1228.0,67.3 L1236.0,69.8 L1244.0,72.3 L1252.0,74.8 L1260.0,77.3 L1268.0,79.7 L1276.0,82.0 L1284.0,84.2 L1292.0,86.2 L1300.0,88.0 L1308.0,89.6 L1316.0,91.0 L1324.0,92.1 L1332.0,93.0 L1340.0,93.6 L1348.0,93.9 L1356.0,94.0 L1364.0,93.7 L1372.0,93.2 L1380.0,92.4 L1388.0,91.3 L1396.0,90.0 L1404.0,88.4 L1412.0,86.6 L1420.0,84.7 L1428.0,82.5 L1436.0,80.3 L1444.0,77.9 L1452.0,75.4 L1460.0,72.9 L1468.0,70.4 L1476.0,67.9 L1484.0,65.5 L1492.0,63.1 L1500.0,60.9 L1508.0,58.8 L1516.0,56.9 L1524.0,55.2 L1532.0,53.7 L1540.0,52.4 L1548.0,51.4 L1556.0,50.6 L1564.0,50.2 L1572.0,50.0 L1580.0,50.1 L1588.0,50.5 L1596.0,51.2 L1596.0,111.2 L1588.0,110.5 L1580.0,110.1 L1572.0,110.0 L1564.0,110.2 L1556.0,110.6 L1548.0,111.4 L1540.0,112.4 L1532.0,113.7 L1524.0,115.2 L1516.0,116.9 L1508.0,118.8 L1500.0,120.9 L1492.0,123.1 L1484.0,125.5 L1476.0,127.9 L1468.0,130.4 L1460.0,132.9 L1452.0,135.4 L1444.0,137.9 L1436.0,140.3 L1428.0,142.5 L1420.0,144.7 L1412.0,146.6 L1404.0,148.4 L1396.0,150.0 L1388.0,151.3 L1380.0,152.4 L1372.0,153.2 L1364.0,153.7 L1356.0,154.0 L1348.0,153.9 L1340.0,153.6 L1332.0,153.0 L1324.0,152.1 L1316.0,151.0 L1308.0,149.6 L1300.0,148.0 L1292.0,146.2 L1284.0,144.2 L1276.0,142.0 L1268.0,139.7 L1260.0,137.3 L1252.0,134.8 L1244.0,132.3 L1236.0,129.8 L1228.0,127.3 L1220.0,124.9 L1212.0,122.6 L1204.0,120.4 L1196.0,118.3 L1188.0,116.5 L1180.0,114.8 L1172.0,113.3 L1164.0,112.1 L1156.0,111.2 L1148.0,110.5 L1140.0,110.1 L1132.0,110.0 L1124.0,110.2 L1116.0,110.6 L1108.0,111.4 L1100.0,112.4 L1092.0,113.7 L1084.0,115.2 L1076.0,116.9 L1068.0,118.8 L1060.0,120.9 L1052.0,123.1 L1044.0,125.5 L1036.0,127.9 L1028.0,130.4 L1020.0,132.9 L1012.0,135.4 L1004.0,137.9 L996.0,140.3 L988.0,142.5 L980.0,144.7 L972.0,146.6 L964.0,148.4 L956.0,150.0 L948.0,151.3 L940.0,152.4 L932.0,153.2 L924.0,153.7 L916.0,154.0 L908.0,153.9 L900.0,153.6 L892.0,153.0 L884.0,152.1 L876.0,151.0 L868.0,149.6 L860.0,148.0 L852.0,146.2 L844.0,144.2 L836.0,142.0 L828.0,139.7 L820.0,137.3 L812.0,134.8 L804.0,132.3 L796.0,129.8 L788.0,127.3 L780.0,124.9 L772.0,122.6 L764.0,120.4 L756.0,118.3 L748.0,116.5 L740.0,114.8 L732.0,113.3 L724.0,112.1 L716.0,111.2 L708.0,110.5 L700.0,110.1 L692.0,110.0 L684.0,110.2 L676.0,110.6 L668.0,111.4 L660.0,112.4 L652.0,113.7 L644.0,115.2 L636.0,116.9 L628.0,118.8 L620.0,120.9 L612.0,123.1 L604.0,125.5 L596.0,127.9 L588.0,130.4 L580.0,132.9 L572.0,135.4 L564.0,137.9 L556.0,140.3 L548.0,142.5 L540.0,144.7 L532.0,146.6 L524.0,148.4 L516.0,150.0 L508.0,151.3 L500.0,152.4 L492.0,153.2 L484.0,153.7 L476.0,154.0 L468.0,153.9 L460.0,153.6 L452.0,153.0 L444.0,152.1 L436.0,151.0 L428.0,149.6 L420.0,148.0 L412.0,146.2 L404.0,144.2 L396.0,142.0 L388.0,139.7 L380.0,137.3 L372.0,134.8 L364.0,132.3 L356.0,129.8 L348.0,127.3 L340.0,124.9 L332.0,122.6 L324.0,120.4 L316.0,118.3 L308.0,116.5 L300.0,114.8 L292.0,113.3 L284.0,112.1 L276.0,111.2 L268.0,110.5 L260.0,110.1 L252.0,110.0 L244.0,110.2 L236.0,110.6 L228.0,111.4 L220.0,112.4 L212.0,113.7 L204.0,115.2 L196.0,116.9 L188.0,118.8 L180.0,120.9 L172.0,123.1 L164.0,125.5 L156.0,127.9 L148.0,130.4 L140.0,132.9 L132.0,135.4 L124.0,137.9 L116.0,140.3 L108.0,142.5 L100.0,144.7 L92.0,146.6 L84.0,148.4 L76.0,150.0 L68.0,151.3 L60.0,152.4 L52.0,153.2 L44.0,153.7 L36.0,154.0 L28.0,153.9 L20.0,153.6 L12.0,153.0 L4.0,152.1 L-4.0,151.0 L-12.0,149.6 L-20.0,148.0 L-28.0,146.2 L-36.0,144.2 L-44.0,142.0 L-52.0,139.7 L-60.0,137.3 L-68.0,134.8 L-76.0,132.3 L-84.0,129.8 L-92.0,127.3 L-100.0,124.9 L-108.0,122.6 L-116.0,120.4 L-124.0,118.3 L-132.0,116.5 L-140.0,114.8 L-148.0,113.3 L-156.0,112.1 L-164.0,111.2 L-172.0,110.5 L-180.0,110.1 L-188.0,110.0 L-196.0,110.2 L-204.0,110.6 L-212.0,111.4 L-220.0,112.4 L-228.0,113.7 L-236.0,115.2 L-244.0,116.9 L-252.0,118.8 L-260.0,120.9 L-268.0,123.1 L-276.0,125.5 L-284.0,127.9 L-292.0,130.4 L-300.0,132.9 L-308.0,135.4 L-316.0,137.9 L-324.0,140.3 L-332.0,142.5 L-340.0,144.7 L-348.0,146.6 L-356.0,148.4 L-364.0,150.0 L-372.0,151.3 L-380.0,152.4 L-388.0,153.2 L-396.0,153.7 L-404.0,154.0 L-412.0,153.9 L-420.0,153.6 L-428.0,153.0 L-436.0,152.1 L-444.0,151.0 L-452.0,149.6 L-460.0,148.0 L-468.0,146.2 L-476.0,144.2 L-484.0,142.0 L-492.0,139.7 L-500.0,137.3 Z" fill="#3FBEE0" fill-opacity="0.17"><animateTransform attributeName="transform" type="translate" values="0 0;440 0" dur="13s" repeatCount="indefinite"/></path><path d="M-700.0,121.8 L-692.0,121.9 L-684.0,122.0 L-676.0,121.9 L-668.0,121.8 L-660.0,121.5 L-652.0,121.1 L-644.0,120.6 L-636.0,120.1 L-628.0,119.4 L-620.0,118.6 L-612.0,117.7 L-604.0,116.8 L-596.0,115.7 L-588.0,114.6 L-580.0,113.4 L-572.0,112.2 L-564.0,110.9 L-556.0,109.6 L-548.0,108.3 L-540.0,106.9 L-532.0,105.5 L-524.0,104.0 L-516.0,102.6 L-508.0,101.2 L-500.0,99.8 L-492.0,98.5 L-484.0,97.2 L-476.0,95.9 L-468.0,94.6 L-460.0,93.5 L-452.0,92.3 L-444.0,91.3 L-436.0,90.3 L-428.0,89.5 L-420.0,88.7 L-412.0,88.0 L-404.0,87.4 L-396.0,86.9 L-388.0,86.5 L-380.0,86.2 L-372.0,86.1 L-364.0,86.0 L-356.0,86.1 L-348.0,86.2 L-340.0,86.5 L-332.0,86.9 L-324.0,87.4 L-316.0,87.9 L-308.0,88.6 L-300.0,89.4 L-292.0,90.3 L-284.0,91.2 L-276.0,92.3 L-268.0,93.4 L-260.0,94.6 L-252.0,95.8 L-244.0,97.1 L-236.0,98.4 L-228.0,99.7 L-220.0,101.1 L-212.0,102.5 L-204.0,104.0 L-196.0,105.4 L-188.0,106.8 L-180.0,108.2 L-172.0,109.5 L-164.0,110.8 L-156.0,112.1 L-148.0,113.4 L-140.0,114.5 L-132.0,115.7 L-124.0,116.7 L-116.0,117.7 L-108.0,118.5 L-100.0,119.3 L-92.0,120.0 L-84.0,120.6 L-76.0,121.1 L-68.0,121.5 L-60.0,121.8 L-52.0,121.9 L-44.0,122.0 L-36.0,121.9 L-28.0,121.8 L-20.0,121.5 L-12.0,121.1 L-4.0,120.6 L4.0,120.1 L12.0,119.4 L20.0,118.6 L28.0,117.7 L36.0,116.8 L44.0,115.7 L52.0,114.6 L60.0,113.4 L68.0,112.2 L76.0,110.9 L84.0,109.6 L92.0,108.3 L100.0,106.9 L108.0,105.5 L116.0,104.0 L124.0,102.6 L132.0,101.2 L140.0,99.8 L148.0,98.5 L156.0,97.2 L164.0,95.9 L172.0,94.6 L180.0,93.5 L188.0,92.3 L196.0,91.3 L204.0,90.3 L212.0,89.5 L220.0,88.7 L228.0,88.0 L236.0,87.4 L244.0,86.9 L252.0,86.5 L260.0,86.2 L268.0,86.1 L276.0,86.0 L284.0,86.1 L292.0,86.2 L300.0,86.5 L308.0,86.9 L316.0,87.4 L324.0,87.9 L332.0,88.6 L340.0,89.4 L348.0,90.3 L356.0,91.2 L364.0,92.3 L372.0,93.4 L380.0,94.6 L388.0,95.8 L396.0,97.1 L404.0,98.4 L412.0,99.7 L420.0,101.1 L428.0,102.5 L436.0,104.0 L444.0,105.4 L452.0,106.8 L460.0,108.2 L468.0,109.5 L476.0,110.8 L484.0,112.1 L492.0,113.4 L500.0,114.5 L508.0,115.7 L516.0,116.7 L524.0,117.7 L532.0,118.5 L540.0,119.3 L548.0,120.0 L556.0,120.6 L564.0,121.1 L572.0,121.5 L580.0,121.8 L588.0,121.9 L596.0,122.0 L604.0,121.9 L612.0,121.8 L620.0,121.5 L628.0,121.1 L636.0,120.6 L644.0,120.1 L652.0,119.4 L660.0,118.6 L668.0,117.7 L676.0,116.8 L684.0,115.7 L692.0,114.6 L700.0,113.4 L708.0,112.2 L716.0,110.9 L724.0,109.6 L732.0,108.3 L740.0,106.9 L748.0,105.5 L756.0,104.0 L764.0,102.6 L772.0,101.2 L780.0,99.8 L788.0,98.5 L796.0,97.2 L804.0,95.9 L812.0,94.6 L820.0,93.5 L828.0,92.3 L836.0,91.3 L844.0,90.3 L852.0,89.5 L860.0,88.7 L868.0,88.0 L876.0,87.4 L884.0,86.9 L892.0,86.5 L900.0,86.2 L908.0,86.1 L916.0,86.0 L924.0,86.1 L932.0,86.2 L940.0,86.5 L948.0,86.9 L956.0,87.4 L964.0,87.9 L972.0,88.6 L980.0,89.4 L988.0,90.3 L996.0,91.2 L1004.0,92.3 L1012.0,93.4 L1020.0,94.6 L1028.0,95.8 L1036.0,97.1 L1044.0,98.4 L1052.0,99.7 L1060.0,101.1 L1068.0,102.5 L1076.0,104.0 L1084.0,105.4 L1092.0,106.8 L1100.0,108.2 L1108.0,109.5 L1116.0,110.8 L1124.0,112.1 L1132.0,113.4 L1140.0,114.5 L1148.0,115.7 L1156.0,116.7 L1164.0,117.7 L1172.0,118.5 L1180.0,119.3 L1188.0,120.0 L1196.0,120.6 L1204.0,121.1 L1212.0,121.5 L1220.0,121.8 L1228.0,121.9 L1236.0,122.0 L1244.0,121.9 L1252.0,121.8 L1260.0,121.5 L1268.0,121.1 L1276.0,120.6 L1284.0,120.1 L1292.0,119.4 L1300.0,118.6 L1308.0,117.7 L1316.0,116.8 L1324.0,115.7 L1332.0,114.6 L1340.0,113.4 L1348.0,112.2 L1356.0,110.9 L1364.0,109.6 L1372.0,108.3 L1380.0,106.9 L1388.0,105.5 L1396.0,104.0 L1404.0,102.6 L1412.0,101.2 L1420.0,99.8 L1428.0,98.5 L1436.0,97.2 L1444.0,95.9 L1452.0,94.6 L1460.0,93.5 L1468.0,92.3 L1476.0,91.3 L1484.0,90.3 L1492.0,89.5 L1500.0,88.7 L1508.0,88.0 L1516.0,87.4 L1524.0,86.9 L1532.0,86.5 L1540.0,86.2 L1548.0,86.1 L1556.0,86.0 L1564.0,86.1 L1572.0,86.2 L1580.0,86.5 L1588.0,86.9 L1596.0,87.4 L1604.0,87.9 L1612.0,88.6 L1620.0,89.4 L1628.0,90.3 L1636.0,91.2 L1644.0,92.3 L1652.0,93.4 L1660.0,94.6 L1668.0,95.8 L1676.0,97.1 L1684.0,98.4 L1692.0,99.7 L1700.0,101.1 L1708.0,102.5 L1716.0,104.0 L1724.0,105.4 L1732.0,106.8 L1740.0,108.2 L1748.0,109.5 L1756.0,110.8 L1764.0,112.1 L1772.0,113.4 L1780.0,114.5 L1788.0,115.7 L1796.0,116.7 L1796.0,168.7 L1788.0,167.7 L1780.0,166.5 L1772.0,165.4 L1764.0,164.1 L1756.0,162.8 L1748.0,161.5 L1740.0,160.2 L1732.0,158.8 L1724.0,157.4 L1716.0,156.0 L1708.0,154.5 L1700.0,153.1 L1692.0,151.7 L1684.0,150.4 L1676.0,149.1 L1668.0,147.8 L1660.0,146.6 L1652.0,145.4 L1644.0,144.3 L1636.0,143.2 L1628.0,142.3 L1620.0,141.4 L1612.0,140.6 L1604.0,139.9 L1596.0,139.4 L1588.0,138.9 L1580.0,138.5 L1572.0,138.2 L1564.0,138.1 L1556.0,138.0 L1548.0,138.1 L1540.0,138.2 L1532.0,138.5 L1524.0,138.9 L1516.0,139.4 L1508.0,140.0 L1500.0,140.7 L1492.0,141.5 L1484.0,142.3 L1476.0,143.3 L1468.0,144.3 L1460.0,145.5 L1452.0,146.6 L1444.0,147.9 L1436.0,149.2 L1428.0,150.5 L1420.0,151.8 L1412.0,153.2 L1404.0,154.6 L1396.0,156.0 L1388.0,157.5 L1380.0,158.9 L1372.0,160.3 L1364.0,161.6 L1356.0,162.9 L1348.0,164.2 L1340.0,165.4 L1332.0,166.6 L1324.0,167.7 L1316.0,168.8 L1308.0,169.7 L1300.0,170.6 L1292.0,171.4 L1284.0,172.1 L1276.0,172.6 L1268.0,173.1 L1260.0,173.5 L1252.0,173.8 L1244.0,173.9 L1236.0,174.0 L1228.0,173.9 L1220.0,173.8 L1212.0,173.5 L1204.0,173.1 L1196.0,172.6 L1188.0,172.0 L1180.0,171.3 L1172.0,170.5 L1164.0,169.7 L1156.0,168.7 L1148.0,167.7 L1140.0,166.5 L1132.0,165.4 L1124.0,164.1 L1116.0,162.8 L1108.0,161.5 L1100.0,160.2 L1092.0,158.8 L1084.0,157.4 L1076.0,156.0 L1068.0,154.5 L1060.0,153.1 L1052.0,151.7 L1044.0,150.4 L1036.0,149.1 L1028.0,147.8 L1020.0,146.6 L1012.0,145.4 L1004.0,144.3 L996.0,143.2 L988.0,142.3 L980.0,141.4 L972.0,140.6 L964.0,139.9 L956.0,139.4 L948.0,138.9 L940.0,138.5 L932.0,138.2 L924.0,138.1 L916.0,138.0 L908.0,138.1 L900.0,138.2 L892.0,138.5 L884.0,138.9 L876.0,139.4 L868.0,140.0 L860.0,140.7 L852.0,141.5 L844.0,142.3 L836.0,143.3 L828.0,144.3 L820.0,145.5 L812.0,146.6 L804.0,147.9 L796.0,149.2 L788.0,150.5 L780.0,151.8 L772.0,153.2 L764.0,154.6 L756.0,156.0 L748.0,157.5 L740.0,158.9 L732.0,160.3 L724.0,161.6 L716.0,162.9 L708.0,164.2 L700.0,165.4 L692.0,166.6 L684.0,167.7 L676.0,168.8 L668.0,169.7 L660.0,170.6 L652.0,171.4 L644.0,172.1 L636.0,172.6 L628.0,173.1 L620.0,173.5 L612.0,173.8 L604.0,173.9 L596.0,174.0 L588.0,173.9 L580.0,173.8 L572.0,173.5 L564.0,173.1 L556.0,172.6 L548.0,172.0 L540.0,171.3 L532.0,170.5 L524.0,169.7 L516.0,168.7 L508.0,167.7 L500.0,166.5 L492.0,165.4 L484.0,164.1 L476.0,162.8 L468.0,161.5 L460.0,160.2 L452.0,158.8 L444.0,157.4 L436.0,156.0 L428.0,154.5 L420.0,153.1 L412.0,151.7 L404.0,150.4 L396.0,149.1 L388.0,147.8 L380.0,146.6 L372.0,145.4 L364.0,144.3 L356.0,143.2 L348.0,142.3 L340.0,141.4 L332.0,140.6 L324.0,139.9 L316.0,139.4 L308.0,138.9 L300.0,138.5 L292.0,138.2 L284.0,138.1 L276.0,138.0 L268.0,138.1 L260.0,138.2 L252.0,138.5 L244.0,138.9 L236.0,139.4 L228.0,140.0 L220.0,140.7 L212.0,141.5 L204.0,142.3 L196.0,143.3 L188.0,144.3 L180.0,145.5 L172.0,146.6 L164.0,147.9 L156.0,149.2 L148.0,150.5 L140.0,151.8 L132.0,153.2 L124.0,154.6 L116.0,156.0 L108.0,157.5 L100.0,158.9 L92.0,160.3 L84.0,161.6 L76.0,162.9 L68.0,164.2 L60.0,165.4 L52.0,166.6 L44.0,167.7 L36.0,168.8 L28.0,169.7 L20.0,170.6 L12.0,171.4 L4.0,172.1 L-4.0,172.6 L-12.0,173.1 L-20.0,173.5 L-28.0,173.8 L-36.0,173.9 L-44.0,174.0 L-52.0,173.9 L-60.0,173.8 L-68.0,173.5 L-76.0,173.1 L-84.0,172.6 L-92.0,172.0 L-100.0,171.3 L-108.0,170.5 L-116.0,169.7 L-124.0,168.7 L-132.0,167.7 L-140.0,166.5 L-148.0,165.4 L-156.0,164.1 L-164.0,162.8 L-172.0,161.5 L-180.0,160.2 L-188.0,158.8 L-196.0,157.4 L-204.0,156.0 L-212.0,154.5 L-220.0,153.1 L-228.0,151.7 L-236.0,150.4 L-244.0,149.1 L-252.0,147.8 L-260.0,146.6 L-268.0,145.4 L-276.0,144.3 L-284.0,143.2 L-292.0,142.3 L-300.0,141.4 L-308.0,140.6 L-316.0,139.9 L-324.0,139.4 L-332.0,138.9 L-340.0,138.5 L-348.0,138.2 L-356.0,138.1 L-364.0,138.0 L-372.0,138.1 L-380.0,138.2 L-388.0,138.5 L-396.0,138.9 L-404.0,139.4 L-412.0,140.0 L-420.0,140.7 L-428.0,141.5 L-436.0,142.3 L-444.0,143.3 L-452.0,144.3 L-460.0,145.5 L-468.0,146.6 L-476.0,147.9 L-484.0,149.2 L-492.0,150.5 L-500.0,151.8 L-508.0,153.2 L-516.0,154.6 L-524.0,156.0 L-532.0,157.5 L-540.0,158.9 L-548.0,160.3 L-556.0,161.6 L-564.0,162.9 L-572.0,164.2 L-580.0,165.4 L-588.0,166.6 L-596.0,167.7 L-604.0,168.8 L-612.0,169.7 L-620.0,170.6 L-628.0,171.4 L-636.0,172.1 L-644.0,172.6 L-652.0,173.1 L-660.0,173.5 L-668.0,173.8 L-676.0,173.9 L-684.0,174.0 L-692.0,173.9 L-700.0,173.8 Z" fill="#1565A8" fill-opacity="0.18"><animateTransform attributeName="transform" type="translate" values="0 0;-640 0" dur="21s" repeatCount="indefinite"/></path><path d="M-560.0,127.0 L-552.0,128.9 L-544.0,130.9 L-536.0,133.0 L-528.0,135.0 L-520.0,136.9 L-512.0,138.8 L-504.0,140.7 L-496.0,142.5 L-488.0,144.1 L-480.0,145.7 L-472.0,147.1 L-464.0,148.3 L-456.0,149.4 L-448.0,150.3 L-440.0,151.0 L-432.0,151.5 L-424.0,151.9 L-416.0,152.0 L-408.0,151.9 L-400.0,151.7 L-392.0,151.2 L-384.0,150.5 L-376.0,149.7 L-368.0,148.6 L-360.0,147.4 L-352.0,146.1 L-344.0,144.6 L-336.0,143.0 L-328.0,141.2 L-320.0,139.4 L-312.0,137.5 L-304.0,135.6 L-296.0,133.6 L-288.0,131.6 L-280.0,129.5 L-272.0,127.6 L-264.0,125.6 L-256.0,123.8 L-248.0,122.0 L-240.0,120.3 L-232.0,118.7 L-224.0,117.3 L-216.0,116.0 L-208.0,114.9 L-200.0,113.9 L-192.0,113.2 L-184.0,112.6 L-176.0,112.2 L-168.0,112.0 L-160.0,112.0 L-152.0,112.3 L-144.0,112.7 L-136.0,113.3 L-128.0,114.1 L-120.0,115.1 L-112.0,116.2 L-104.0,117.6 L-96.0,119.0 L-88.0,120.6 L-80.0,122.3 L-72.0,124.1 L-64.0,126.0 L-56.0,128.0 L-48.0,129.9 L-40.0,131.9 L-32.0,134.0 L-24.0,135.9 L-16.0,137.9 L-8.0,139.8 L0.0,141.6 L8.0,143.3 L16.0,144.9 L24.0,146.4 L32.0,147.7 L40.0,148.9 L48.0,149.9 L56.0,150.7 L64.0,151.3 L72.0,151.7 L80.0,152.0 L88.0,152.0 L96.0,151.8 L104.0,151.4 L112.0,150.9 L120.0,150.1 L128.0,149.2 L136.0,148.1 L144.0,146.8 L152.0,145.4 L160.0,143.8 L168.0,142.1 L176.0,140.3 L184.0,138.5 L192.0,136.5 L200.0,134.6 L208.0,132.6 L216.0,130.5 L224.0,128.6 L232.0,126.6 L240.0,124.7 L248.0,122.9 L256.0,121.1 L264.0,119.5 L272.0,118.0 L280.0,116.6 L288.0,115.4 L296.0,114.4 L304.0,113.5 L312.0,112.8 L320.0,112.4 L328.0,112.1 L336.0,112.0 L344.0,112.1 L352.0,112.4 L360.0,113.0 L368.0,113.7 L376.0,114.6 L384.0,115.6 L392.0,116.9 L400.0,118.3 L408.0,119.8 L416.0,121.5 L424.0,123.2 L432.0,125.1 L440.0,127.0 L448.0,128.9 L456.0,130.9 L464.0,133.0 L472.0,135.0 L480.0,136.9 L488.0,138.8 L496.0,140.7 L504.0,142.5 L512.0,144.1 L520.0,145.7 L528.0,147.1 L536.0,148.3 L544.0,149.4 L552.0,150.3 L560.0,151.0 L568.0,151.5 L576.0,151.9 L584.0,152.0 L592.0,151.9 L600.0,151.7 L608.0,151.2 L616.0,150.5 L624.0,149.7 L632.0,148.6 L640.0,147.4 L648.0,146.1 L656.0,144.6 L664.0,143.0 L672.0,141.2 L680.0,139.4 L688.0,137.5 L696.0,135.6 L704.0,133.6 L712.0,131.6 L720.0,129.5 L728.0,127.6 L736.0,125.6 L744.0,123.8 L752.0,122.0 L760.0,120.3 L768.0,118.7 L776.0,117.3 L784.0,116.0 L792.0,114.9 L800.0,113.9 L808.0,113.2 L816.0,112.6 L824.0,112.2 L832.0,112.0 L840.0,112.0 L848.0,112.3 L856.0,112.7 L864.0,113.3 L872.0,114.1 L880.0,115.1 L888.0,116.2 L896.0,117.6 L904.0,119.0 L912.0,120.6 L920.0,122.3 L928.0,124.1 L936.0,126.0 L944.0,128.0 L952.0,129.9 L960.0,131.9 L968.0,134.0 L976.0,135.9 L984.0,137.9 L992.0,139.8 L1000.0,141.6 L1008.0,143.3 L1016.0,144.9 L1024.0,146.4 L1032.0,147.7 L1040.0,148.9 L1048.0,149.9 L1056.0,150.7 L1064.0,151.3 L1072.0,151.7 L1080.0,152.0 L1088.0,152.0 L1096.0,151.8 L1104.0,151.4 L1112.0,150.9 L1120.0,150.1 L1128.0,149.2 L1136.0,148.1 L1144.0,146.8 L1152.0,145.4 L1160.0,143.8 L1168.0,142.1 L1176.0,140.3 L1184.0,138.5 L1192.0,136.5 L1200.0,134.6 L1208.0,132.6 L1216.0,130.5 L1224.0,128.6 L1232.0,126.6 L1240.0,124.7 L1248.0,122.9 L1256.0,121.1 L1264.0,119.5 L1272.0,118.0 L1280.0,116.6 L1288.0,115.4 L1296.0,114.4 L1304.0,113.5 L1312.0,112.8 L1320.0,112.4 L1328.0,112.1 L1336.0,112.0 L1344.0,112.1 L1352.0,112.4 L1360.0,113.0 L1368.0,113.7 L1376.0,114.6 L1384.0,115.6 L1392.0,116.9 L1400.0,118.3 L1408.0,119.8 L1416.0,121.5 L1424.0,123.2 L1432.0,125.1 L1440.0,127.0 L1448.0,128.9 L1456.0,130.9 L1464.0,133.0 L1472.0,135.0 L1480.0,136.9 L1488.0,138.8 L1496.0,140.7 L1504.0,142.5 L1512.0,144.1 L1520.0,145.7 L1528.0,147.1 L1536.0,148.3 L1544.0,149.4 L1552.0,150.3 L1560.0,151.0 L1568.0,151.5 L1576.0,151.9 L1584.0,152.0 L1592.0,151.9 L1600.0,151.7 L1608.0,151.2 L1616.0,150.5 L1624.0,149.7 L1632.0,148.6 L1640.0,147.4 L1648.0,146.1 L1656.0,144.6 L1656.0,198.6 L1648.0,200.1 L1640.0,201.4 L1632.0,202.6 L1624.0,203.7 L1616.0,204.5 L1608.0,205.2 L1600.0,205.7 L1592.0,205.9 L1584.0,206.0 L1576.0,205.9 L1568.0,205.5 L1560.0,205.0 L1552.0,204.3 L1544.0,203.4 L1536.0,202.3 L1528.0,201.1 L1520.0,199.7 L1512.0,198.1 L1504.0,196.5 L1496.0,194.7 L1488.0,192.8 L1480.0,190.9 L1472.0,189.0 L1464.0,187.0 L1456.0,184.9 L1448.0,182.9 L1440.0,181.0 L1432.0,179.1 L1424.0,177.2 L1416.0,175.5 L1408.0,173.8 L1400.0,172.3 L1392.0,170.9 L1384.0,169.6 L1376.0,168.6 L1368.0,167.7 L1360.0,167.0 L1352.0,166.4 L1344.0,166.1 L1336.0,166.0 L1328.0,166.1 L1320.0,166.4 L1312.0,166.8 L1304.0,167.5 L1296.0,168.4 L1288.0,169.4 L1280.0,170.6 L1272.0,172.0 L1264.0,173.5 L1256.0,175.1 L1248.0,176.9 L1240.0,178.7 L1232.0,180.6 L1224.0,182.6 L1216.0,184.5 L1208.0,186.6 L1200.0,188.6 L1192.0,190.5 L1184.0,192.5 L1176.0,194.3 L1168.0,196.1 L1160.0,197.8 L1152.0,199.4 L1144.0,200.8 L1136.0,202.1 L1128.0,203.2 L1120.0,204.1 L1112.0,204.9 L1104.0,205.4 L1096.0,205.8 L1088.0,206.0 L1080.0,206.0 L1072.0,205.7 L1064.0,205.3 L1056.0,204.7 L1048.0,203.9 L1040.0,202.9 L1032.0,201.7 L1024.0,200.4 L1016.0,198.9 L1008.0,197.3 L1000.0,195.6 L992.0,193.8 L984.0,191.9 L976.0,189.9 L968.0,188.0 L960.0,185.9 L952.0,183.9 L944.0,182.0 L936.0,180.0 L928.0,178.1 L920.0,176.3 L912.0,174.6 L904.0,173.0 L896.0,171.6 L888.0,170.2 L880.0,169.1 L872.0,168.1 L864.0,167.3 L856.0,166.7 L848.0,166.3 L840.0,166.0 L832.0,166.0 L824.0,166.2 L816.0,166.6 L808.0,167.2 L800.0,167.9 L792.0,168.9 L784.0,170.0 L776.0,171.3 L768.0,172.7 L760.0,174.3 L752.0,176.0 L744.0,177.8 L736.0,179.6 L728.0,181.6 L720.0,183.5 L712.0,185.6 L704.0,187.6 L696.0,189.6 L688.0,191.5 L680.0,193.4 L672.0,195.2 L664.0,197.0 L656.0,198.6 L648.0,200.1 L640.0,201.4 L632.0,202.6 L624.0,203.7 L616.0,204.5 L608.0,205.2 L600.0,205.7 L592.0,205.9 L584.0,206.0 L576.0,205.9 L568.0,205.5 L560.0,205.0 L552.0,204.3 L544.0,203.4 L536.0,202.3 L528.0,201.1 L520.0,199.7 L512.0,198.1 L504.0,196.5 L496.0,194.7 L488.0,192.8 L480.0,190.9 L472.0,189.0 L464.0,187.0 L456.0,184.9 L448.0,182.9 L440.0,181.0 L432.0,179.1 L424.0,177.2 L416.0,175.5 L408.0,173.8 L400.0,172.3 L392.0,170.9 L384.0,169.6 L376.0,168.6 L368.0,167.7 L360.0,167.0 L352.0,166.4 L344.0,166.1 L336.0,166.0 L328.0,166.1 L320.0,166.4 L312.0,166.8 L304.0,167.5 L296.0,168.4 L288.0,169.4 L280.0,170.6 L272.0,172.0 L264.0,173.5 L256.0,175.1 L248.0,176.9 L240.0,178.7 L232.0,180.6 L224.0,182.6 L216.0,184.5 L208.0,186.6 L200.0,188.6 L192.0,190.5 L184.0,192.5 L176.0,194.3 L168.0,196.1 L160.0,197.8 L152.0,199.4 L144.0,200.8 L136.0,202.1 L128.0,203.2 L120.0,204.1 L112.0,204.9 L104.0,205.4 L96.0,205.8 L88.0,206.0 L80.0,206.0 L72.0,205.7 L64.0,205.3 L56.0,204.7 L48.0,203.9 L40.0,202.9 L32.0,201.7 L24.0,200.4 L16.0,198.9 L8.0,197.3 L0.0,195.6 L-8.0,193.8 L-16.0,191.9 L-24.0,189.9 L-32.0,188.0 L-40.0,185.9 L-48.0,183.9 L-56.0,182.0 L-64.0,180.0 L-72.0,178.1 L-80.0,176.3 L-88.0,174.6 L-96.0,173.0 L-104.0,171.6 L-112.0,170.2 L-120.0,169.1 L-128.0,168.1 L-136.0,167.3 L-144.0,166.7 L-152.0,166.3 L-160.0,166.0 L-168.0,166.0 L-176.0,166.2 L-184.0,166.6 L-192.0,167.2 L-200.0,167.9 L-208.0,168.9 L-216.0,170.0 L-224.0,171.3 L-232.0,172.7 L-240.0,174.3 L-248.0,176.0 L-256.0,177.8 L-264.0,179.6 L-272.0,181.6 L-280.0,183.5 L-288.0,185.6 L-296.0,187.6 L-304.0,189.6 L-312.0,191.5 L-320.0,193.4 L-328.0,195.2 L-336.0,197.0 L-344.0,198.6 L-352.0,200.1 L-360.0,201.4 L-368.0,202.6 L-376.0,203.7 L-384.0,204.5 L-392.0,205.2 L-400.0,205.7 L-408.0,205.9 L-416.0,206.0 L-424.0,205.9 L-432.0,205.5 L-440.0,205.0 L-448.0,204.3 L-456.0,203.4 L-464.0,202.3 L-472.0,201.1 L-480.0,199.7 L-488.0,198.1 L-496.0,196.5 L-504.0,194.7 L-512.0,192.8 L-520.0,190.9 L-528.0,189.0 L-536.0,187.0 L-544.0,184.9 L-552.0,182.9 L-560.0,181.0 Z" fill="#3CB0DE" fill-opacity="0.14"><animateTransform attributeName="transform" type="translate" values="0 0;500 0" dur="15s" repeatCount="indefinite"/></path><path d="M-460.0,173.9 L-452.0,173.5 L-444.0,172.6 L-436.0,171.5 L-428.0,170.0 L-420.0,168.1 L-412.0,166.0 L-404.0,163.6 L-396.0,161.1 L-388.0,158.3 L-380.0,155.4 L-372.0,152.4 L-364.0,149.4 L-356.0,146.4 L-348.0,143.5 L-340.0,140.6 L-332.0,137.9 L-324.0,135.4 L-316.0,133.2 L-308.0,131.1 L-300.0,129.4 L-292.0,128.0 L-284.0,127.0 L-276.0,126.3 L-268.0,126.0 L-260.0,126.1 L-252.0,126.5 L-244.0,127.4 L-236.0,128.5 L-228.0,130.0 L-220.0,131.9 L-212.0,134.0 L-204.0,136.4 L-196.0,138.9 L-188.0,141.7 L-180.0,144.6 L-172.0,147.6 L-164.0,150.6 L-156.0,153.6 L-148.0,156.5 L-140.0,159.4 L-132.0,162.1 L-124.0,164.6 L-116.0,166.8 L-108.0,168.9 L-100.0,170.6 L-92.0,172.0 L-84.0,173.0 L-76.0,173.7 L-68.0,174.0 L-60.0,173.9 L-52.0,173.5 L-44.0,172.6 L-36.0,171.5 L-28.0,170.0 L-20.0,168.1 L-12.0,166.0 L-4.0,163.6 L4.0,161.1 L12.0,158.3 L20.0,155.4 L28.0,152.4 L36.0,149.4 L44.0,146.4 L52.0,143.5 L60.0,140.6 L68.0,137.9 L76.0,135.4 L84.0,133.2 L92.0,131.1 L100.0,129.4 L108.0,128.0 L116.0,127.0 L124.0,126.3 L132.0,126.0 L140.0,126.1 L148.0,126.5 L156.0,127.4 L164.0,128.5 L172.0,130.0 L180.0,131.9 L188.0,134.0 L196.0,136.4 L204.0,138.9 L212.0,141.7 L220.0,144.6 L228.0,147.6 L236.0,150.6 L244.0,153.6 L252.0,156.5 L260.0,159.4 L268.0,162.1 L276.0,164.6 L284.0,166.8 L292.0,168.9 L300.0,170.6 L308.0,172.0 L316.0,173.0 L324.0,173.7 L332.0,174.0 L340.0,173.9 L348.0,173.5 L356.0,172.6 L364.0,171.5 L372.0,170.0 L380.0,168.1 L388.0,166.0 L396.0,163.6 L404.0,161.1 L412.0,158.3 L420.0,155.4 L428.0,152.4 L436.0,149.4 L444.0,146.4 L452.0,143.5 L460.0,140.6 L468.0,137.9 L476.0,135.4 L484.0,133.2 L492.0,131.1 L500.0,129.4 L508.0,128.0 L516.0,127.0 L524.0,126.3 L532.0,126.0 L540.0,126.1 L548.0,126.5 L556.0,127.4 L564.0,128.5 L572.0,130.0 L580.0,131.9 L588.0,134.0 L596.0,136.4 L604.0,138.9 L612.0,141.7 L620.0,144.6 L628.0,147.6 L636.0,150.6 L644.0,153.6 L652.0,156.5 L660.0,159.4 L668.0,162.1 L676.0,164.6 L684.0,166.8 L692.0,168.9 L700.0,170.6 L708.0,172.0 L716.0,173.0 L724.0,173.7 L732.0,174.0 L740.0,173.9 L748.0,173.5 L756.0,172.6 L764.0,171.5 L772.0,170.0 L780.0,168.1 L788.0,166.0 L796.0,163.6 L804.0,161.1 L812.0,158.3 L820.0,155.4 L828.0,152.4 L836.0,149.4 L844.0,146.4 L852.0,143.5 L860.0,140.6 L868.0,137.9 L876.0,135.4 L884.0,133.2 L892.0,131.1 L900.0,129.4 L908.0,128.0 L916.0,127.0 L924.0,126.3 L932.0,126.0 L940.0,126.1 L948.0,126.5 L956.0,127.4 L964.0,128.5 L972.0,130.0 L980.0,131.9 L988.0,134.0 L996.0,136.4 L1004.0,138.9 L1012.0,141.7 L1020.0,144.6 L1028.0,147.6 L1036.0,150.6 L1044.0,153.6 L1052.0,156.5 L1060.0,159.4 L1068.0,162.1 L1076.0,164.6 L1084.0,166.8 L1092.0,168.9 L1100.0,170.6 L1108.0,172.0 L1116.0,173.0 L1124.0,173.7 L1132.0,174.0 L1140.0,173.9 L1148.0,173.5 L1156.0,172.6 L1164.0,171.5 L1172.0,170.0 L1180.0,168.1 L1188.0,166.0 L1196.0,163.6 L1204.0,161.1 L1212.0,158.3 L1220.0,155.4 L1228.0,152.4 L1236.0,149.4 L1244.0,146.4 L1252.0,143.5 L1260.0,140.6 L1268.0,137.9 L1276.0,135.4 L1284.0,133.2 L1292.0,131.1 L1300.0,129.4 L1308.0,128.0 L1316.0,127.0 L1324.0,126.3 L1332.0,126.0 L1340.0,126.1 L1348.0,126.5 L1356.0,127.4 L1364.0,128.5 L1372.0,130.0 L1380.0,131.9 L1388.0,134.0 L1396.0,136.4 L1404.0,138.9 L1412.0,141.7 L1420.0,144.6 L1428.0,147.6 L1436.0,150.6 L1444.0,153.6 L1452.0,156.5 L1460.0,159.4 L1468.0,162.1 L1476.0,164.6 L1484.0,166.8 L1492.0,168.9 L1500.0,170.6 L1508.0,172.0 L1516.0,173.0 L1524.0,173.7 L1532.0,174.0 L1540.0,173.9 L1548.0,173.5 L1556.0,172.6 L1556.0,228.6 L1548.0,229.5 L1540.0,229.9 L1532.0,230.0 L1524.0,229.7 L1516.0,229.0 L1508.0,228.0 L1500.0,226.6 L1492.0,224.9 L1484.0,222.8 L1476.0,220.6 L1468.0,218.1 L1460.0,215.4 L1452.0,212.5 L1444.0,209.6 L1436.0,206.6 L1428.0,203.6 L1420.0,200.6 L1412.0,197.7 L1404.0,194.9 L1396.0,192.4 L1388.0,190.0 L1380.0,187.9 L1372.0,186.0 L1364.0,184.5 L1356.0,183.4 L1348.0,182.5 L1340.0,182.1 L1332.0,182.0 L1324.0,182.3 L1316.0,183.0 L1308.0,184.0 L1300.0,185.4 L1292.0,187.1 L1284.0,189.2 L1276.0,191.4 L1268.0,193.9 L1260.0,196.6 L1252.0,199.5 L1244.0,202.4 L1236.0,205.4 L1228.0,208.4 L1220.0,211.4 L1212.0,214.3 L1204.0,217.1 L1196.0,219.6 L1188.0,222.0 L1180.0,224.1 L1172.0,226.0 L1164.0,227.5 L1156.0,228.6 L1148.0,229.5 L1140.0,229.9 L1132.0,230.0 L1124.0,229.7 L1116.0,229.0 L1108.0,228.0 L1100.0,226.6 L1092.0,224.9 L1084.0,222.8 L1076.0,220.6 L1068.0,218.1 L1060.0,215.4 L1052.0,212.5 L1044.0,209.6 L1036.0,206.6 L1028.0,203.6 L1020.0,200.6 L1012.0,197.7 L1004.0,194.9 L996.0,192.4 L988.0,190.0 L980.0,187.9 L972.0,186.0 L964.0,184.5 L956.0,183.4 L948.0,182.5 L940.0,182.1 L932.0,182.0 L924.0,182.3 L916.0,183.0 L908.0,184.0 L900.0,185.4 L892.0,187.1 L884.0,189.2 L876.0,191.4 L868.0,193.9 L860.0,196.6 L852.0,199.5 L844.0,202.4 L836.0,205.4 L828.0,208.4 L820.0,211.4 L812.0,214.3 L804.0,217.1 L796.0,219.6 L788.0,222.0 L780.0,224.1 L772.0,226.0 L764.0,227.5 L756.0,228.6 L748.0,229.5 L740.0,229.9 L732.0,230.0 L724.0,229.7 L716.0,229.0 L708.0,228.0 L700.0,226.6 L692.0,224.9 L684.0,222.8 L676.0,220.6 L668.0,218.1 L660.0,215.4 L652.0,212.5 L644.0,209.6 L636.0,206.6 L628.0,203.6 L620.0,200.6 L612.0,197.7 L604.0,194.9 L596.0,192.4 L588.0,190.0 L580.0,187.9 L572.0,186.0 L564.0,184.5 L556.0,183.4 L548.0,182.5 L540.0,182.1 L532.0,182.0 L524.0,182.3 L516.0,183.0 L508.0,184.0 L500.0,185.4 L492.0,187.1 L484.0,189.2 L476.0,191.4 L468.0,193.9 L460.0,196.6 L452.0,199.5 L444.0,202.4 L436.0,205.4 L428.0,208.4 L420.0,211.4 L412.0,214.3 L404.0,217.1 L396.0,219.6 L388.0,222.0 L380.0,224.1 L372.0,226.0 L364.0,227.5 L356.0,228.6 L348.0,229.5 L340.0,229.9 L332.0,230.0 L324.0,229.7 L316.0,229.0 L308.0,228.0 L300.0,226.6 L292.0,224.9 L284.0,222.8 L276.0,220.6 L268.0,218.1 L260.0,215.4 L252.0,212.5 L244.0,209.6 L236.0,206.6 L228.0,203.6 L220.0,200.6 L212.0,197.7 L204.0,194.9 L196.0,192.4 L188.0,190.0 L180.0,187.9 L172.0,186.0 L164.0,184.5 L156.0,183.4 L148.0,182.5 L140.0,182.1 L132.0,182.0 L124.0,182.3 L116.0,183.0 L108.0,184.0 L100.0,185.4 L92.0,187.1 L84.0,189.2 L76.0,191.4 L68.0,193.9 L60.0,196.6 L52.0,199.5 L44.0,202.4 L36.0,205.4 L28.0,208.4 L20.0,211.4 L12.0,214.3 L4.0,217.1 L-4.0,219.6 L-12.0,222.0 L-20.0,224.1 L-28.0,226.0 L-36.0,227.5 L-44.0,228.6 L-52.0,229.5 L-60.0,229.9 L-68.0,230.0 L-76.0,229.7 L-84.0,229.0 L-92.0,228.0 L-100.0,226.6 L-108.0,224.9 L-116.0,222.8 L-124.0,220.6 L-132.0,218.1 L-140.0,215.4 L-148.0,212.5 L-156.0,209.6 L-164.0,206.6 L-172.0,203.6 L-180.0,200.6 L-188.0,197.7 L-196.0,194.9 L-204.0,192.4 L-212.0,190.0 L-220.0,187.9 L-228.0,186.0 L-236.0,184.5 L-244.0,183.4 L-252.0,182.5 L-260.0,182.1 L-268.0,182.0 L-276.0,182.3 L-284.0,183.0 L-292.0,184.0 L-300.0,185.4 L-308.0,187.1 L-316.0,189.2 L-324.0,191.4 L-332.0,193.9 L-340.0,196.6 L-348.0,199.5 L-356.0,202.4 L-364.0,205.4 L-372.0,208.4 L-380.0,211.4 L-388.0,214.3 L-396.0,217.1 L-404.0,219.6 L-412.0,222.0 L-420.0,224.1 L-428.0,226.0 L-436.0,227.5 L-444.0,228.6 L-452.0,229.5 L-460.0,229.9 Z" fill="#0C3A5C" fill-opacity="0.18"><animateTransform attributeName="transform" type="translate" values="0 0;-400 0" dur="9s" repeatCount="indefinite"/></path></g><g fill="#FFFFFF" font-family="'Segoe UI',Helvetica,Arial,sans-serif" font-weight="700" text-anchor="middle"><text x="548" y="70" font-size="50">Environmentally stratified spatiotemporal</text><text x="548" y="130" font-size="50">nested cross-validation for marine systems</text></g></svg>